Coordinates
version=1
nRows=17
nColumns=34
inDegrees=yes

Units are S.I. units (second, meters, Newtons, ...)
If the header above contains a line with 'inDegrees', this indicates whether rotational values are in degrees (yes) or radians (no).

endheader
time	pelvis_tilt	pelvis_list	pelvis_rotation	pelvis_tx	pelvis_ty	pelvis_tz	hip_flexion_r	hip_adduction_r	hip_rotation_r	knee_angle_r	ankle_angle_r	subtalar_angle_r	mtp_angle_r	hip_flexion_l	hip_adduction_l	hip_rotation_l	knee_angle_l	ankle_angle_l	subtalar_angle_l	mtp_angle_l	lumbar_extension	lumbar_bending	lumbar_rotation	arm_flex_r	arm_add_r	arm_rot_r	elbow_flex_r	pro_sup_r	arm_flex_l	arm_add_l	arm_rot_l	elbow_flex_l	pro_sup_l
      1.18333330	      0.37257810	     -0.87271171	      0.44893509	      1.70211604	      0.86790199	     -0.04842609	     -2.76427517	     -3.92223157	    -10.32533152	      0.75192096	      2.19814758	    -14.67527844	      0.00000000	     -2.90358966	     -5.79271502	     -2.63180406	      0.00000000	      6.02680632	     -0.83674723	      0.00000000	     -7.58185777	      1.86640189	     -2.61290586	      8.97601665	     -8.70349458	     37.92316663	     73.30972665	     87.81364080	     10.37472584	     -8.18346489	     38.54760043	     58.90884952	     81.88512459
      1.20000000	      0.37954043	     -0.87372425	      0.44865703	      1.70205218	      0.86761803	     -0.04827819	     -2.76152073	     -3.92280748	    -10.32640044	      0.75034302	      2.19751280	    -14.67566334	      0.00000000	     -2.90084161	     -5.78981899	     -2.63242053	      0.00000000	      6.02654424	     -0.83694865	      0.00000000	     -7.58197101	      1.86758524	     -2.61227137	      8.97476362	     -8.70358573	     37.92299414	     73.30938861	     87.81321529	     10.37417689	     -8.18345790	     38.54789475	     58.90902207	     81.88542824
      1.21666670	      0.39579135	     -0.86405804	      0.44444553	      1.70185312	      0.86757043	     -0.04815566	     -2.75383306	     -3.91951371	    -10.33378478	      0.74770921	      2.19269995	    -14.67837213	      0.00000000	     -2.89287385	     -5.78382910	     -2.63649739	      0.00000000	      6.02472001	     -0.83858653	      0.00000000	     -7.58281538	      1.87302277	     -2.60780844	      8.96932175	     -8.70410860	     37.92128066	     73.30746340	     87.81080483	     10.37129255	     -8.18490526	     38.54915099	     58.90989792	     81.88708224
      1.23333330	      0.39604602	     -0.86222230	      0.44389503	      1.70189973	      0.86793686	     -0.04821725	     -2.75287562	     -3.91907299	    -10.33475162	      0.74767714	      2.19202167	    -14.67877094	      0.00000000	     -2.89237437	     -5.78426005	     -2.63703675	      0.00000000	      6.02449604	     -0.83885551	      0.00000000	     -7.58282090	      1.87342028	     -2.60716326	      8.96894053	     -8.70416638	     37.92095315	     73.30728414	     87.81051364	     10.37096683	     -8.18527959	     38.54924591	     58.90999875	     81.88727262
      1.25000000	      0.39728488	     -0.86084380	      0.44382215	      1.70196070	      0.86836153	     -0.04824922	     -2.75082926	     -3.91813130	    -10.33581231	      0.74736778	      2.19117259	    -14.67915115	      0.00000000	     -2.89216030	     -5.78403819	     -2.63762125	      0.00000000	      6.02422365	     -0.83913135	      0.00000000	     -7.58268991	      1.87378791	     -2.60647154	      8.96863611	     -8.70437254	     37.92049058	     73.30709135	     87.81020796	     10.37043569	     -8.18577653	     38.54935224	     58.91005058	     81.88746608
      1.26666670	      0.40013488	     -0.86107810	      0.44520147	      1.70207629	      0.86876430	     -0.04813906	     -2.74644524	     -3.91655345	    -10.33733437	      0.74650151	      2.18963667	    -14.67952235	      0.00000000	     -2.89332639	     -5.78181295	     -2.63848122	      0.00000000	      6.02365790	     -0.83945038	      0.00000000	     -7.58245452	      1.87433696	     -2.60548815	      8.96840814	     -8.70497296	     37.91956092	     73.30679673	     87.80974441	     10.36937914	     -8.18661293	     38.54952648	     58.91000418	     81.88774635
      1.28333330	      0.40224269	     -0.85653828	      0.44959662	      1.70221597	      0.86890812	     -0.04789763	     -2.73802397	     -3.90837080	    -10.34133332	      0.74618848	      2.18466941	    -14.67991419	      0.00000000	     -2.90187676	     -5.77788837	     -2.64088578	      0.00000000	      6.02156939	     -0.84006074	      0.00000000	     -7.58165790	      1.87514557	     -2.60264098	      8.96840301	     -8.70688314	     37.91643400	     73.30611394	     87.80844727	     10.36563165	     -8.18962592	     38.54998348	     58.90935777	     81.88848991
      1.30000000	      0.40303625	     -0.85593758	      0.45136509	      1.70225712	      0.86847616	     -0.04784312	     -2.73617412	     -3.90543777	    -10.34288025	      0.74666442	      2.18238029	    -14.67986116	      0.00000000	     -2.90587914	     -5.77659054	     -2.64192169	      0.00022690	      6.02050139	     -0.84019983	      0.00000000	     -7.58125871	      1.87489979	     -2.60131420	      8.96863278	     -8.70757948	     37.91494946	     73.30592069	     87.80789784	     10.36373015	     -8.19130267	     38.55014299	     58.90883812	     81.88878810
      1.31666670	      0.40092321	     -0.85419941	      0.45315454	      1.70219754	      0.86807299	     -0.04793769	     -2.73558353	     -3.90196579	    -10.34429401	      0.74748222	      2.18017132	    -14.67975258	      0.00000000	     -2.91158155	     -5.77643749	     -2.64311108	      0.00093475	      6.01942210	     -0.84038848	      0.00000000	     -7.58046475	      1.87411951	     -2.59989162	      8.96900824	     -8.70807220	     37.91341493	     73.30589343	     87.80737124	     10.36159323	     -8.19328922	     38.55027281	     58.90817546	     81.88906196
      1.33333330	      0.39663845	     -0.85326379	      0.45476479	      1.70204958	      0.86791254	     -0.04809344	     -2.73612527	     -3.89972076	    -10.34548215	      0.74829706	      2.17839391	    -14.67970828	      0.00000000	     -2.91743533	     -5.77689913	     -2.64430945	      0.00188845	      6.01852588	     -0.84064303	      0.00000000	     -7.57936388	      1.87311941	     -2.59865657	      8.96940960	     -8.70840587	     37.91202611	     73.30599727	     87.80692577	     10.35957664	     -8.19516748	     38.55038200	     58.90753574	     81.88928637
      1.35000000	      0.42567181	     -0.89953601	      0.43841613	      1.70221668	      0.86812532	     -0.04805350	     -2.85854112	     -3.82239874	    -10.29983706	      0.56636691	      1.42221671	    -15.25650317	      0.00000000	     -2.98814695	     -5.83064688	     -2.91975144	      0.00000000	      5.81293130	     -0.79993698	      0.00000000	     -7.56341748	      1.72647728	     -1.49987634	      7.54760100	     -8.64823672	     35.15606500	     74.26313501	     84.82290752	     10.81597351	     -8.05366434	     39.42783571	     58.47818779	     83.75897444
      1.36666670	      0.42369480	     -0.90116143	      0.43907341	      1.70214964	      0.86847205	     -0.04801244	     -2.85861640	     -3.82426210	    -10.29983480	      0.56621329	      1.42219422	    -15.25643870	      0.00000000	     -2.98941112	     -5.83062748	     -2.91973004	      0.00000000	      5.81298419	     -0.79995902	      0.00000000	     -7.56275323	      1.72656912	     -1.50022270	      7.54802300	     -8.64821947	     35.15590262	     74.26319702	     84.82274811	     10.81612425	     -8.05369132	     39.42789556	     58.47817095	     83.75907931
      1.38333330	      0.42483157	     -0.90242063	      0.43998627	      1.70203051	      0.86866565	     -0.04802396	     -2.85753522	     -3.82577300	    -10.29981427	      0.56534533	      1.42213420	    -15.25623147	      0.00000000	     -2.99022486	     -5.83029600	     -2.91976090	      0.00000000	      5.81291156	     -0.79990225	      0.00000000	     -7.56176868	      1.72651739	     -1.50084714	      7.54854810	     -8.64833814	     35.15554213	     74.26320967	     84.82247784	     10.81589302	     -8.05384759	     39.42808029	     58.47793450	     83.75925143
      1.40000000	      0.43971879	     -0.90652169	      0.44281583	      1.70176440	      0.86864075	     -0.04815840	     -2.85268943	     -3.82991353	    -10.29982717	      0.56220143	      1.42166289	    -15.25525067	      0.00000000	     -2.98718242	     -5.82761630	     -2.92006776	      0.00000000	      5.81215235	     -0.79948436	      0.00000000	     -7.55909728	      1.72605699	     -1.50325822	      7.55025492	     -8.64935009	     35.15385567	     74.26298525	     84.82142517	     10.81369453	     -8.05473159	     39.42901640	     58.47643248	     83.75989718
      1.41666670	      0.44322405	     -0.90690407	      0.44350905	      1.70177200	      0.86868700	     -0.04816723	     -2.85163080	     -3.83082048	    -10.29983047	      0.56175836	      1.42152247	    -15.25504765	      0.00000000	     -2.98590789	     -5.82735918	     -2.92015857	      0.00000000	      5.81195676	     -0.79941564	      0.00000000	     -7.55879466	      1.72604965	     -1.50367798	      7.55056817	     -8.64962853	     35.15349969	     74.26292309	     84.82122772	     10.81312937	     -8.05490069	     39.42921842	     58.47609999	     83.76001397
      1.43333330	      0.45146968	     -0.90876041	      0.44509296	      1.70184503	      0.86844004	     -0.04810385	     -2.84899187	     -3.83285528	    -10.29975299	      0.56081336	      1.42124353	    -15.25466983	      0.00000000	     -2.98326426	     -5.82647653	     -2.92028061	      0.00000000	      5.81160549	     -0.79927151	      0.00000000	     -7.55866524	      1.72615265	     -1.50415554	      7.55083713	     -8.65006858	     35.15304766	     74.26277679	     84.82097911	     10.81212101	     -8.05511514	     39.42953008	     58.47558655	     83.76015852
      1.45000000	      0.45785160	     -0.90952834	      0.44674576	      1.70188442	      0.86842222	     -0.04803171	     -2.84725663	     -3.83542350	    -10.29966190	      0.56050872	      1.42092612	    -15.25427959	      0.00000000	     -2.98086356	     -5.82692341	     -2.92039896	      0.00000000	      5.81124103	     -0.79915527	      0.00000000	     -7.55847889	      1.72634160	     -1.50463153	      7.55100190	     -8.65053599	     35.15259075	     74.26264773	     84.82072102	     10.81085871	     -8.05531132	     39.42990311	     58.47503858	     83.76030774
